<?xml version="1.0" encoding="utf-8"?>
<!-- Generator: Adobe Illustrator 27.1.1, SVG Export Plug-In . SVG Version: 6.00 Build 0)  -->
<svg version="1.1" id="Layer_1" xmlns="http://www.w3.org/2000/svg" xmlns:xlink="http://www.w3.org/1999/xlink" x="0px" y="0px"
	 viewBox="0 0 1129.9 264.4" style="enable-background:new 0 0 1129.9 264.4;" xml:space="preserve">
<style type="text/css">
	.st0{fill:#FFFFFF;}
	.st1{fill:#39C7EE;}
</style>
<g>
	<g>
		<path class="st0" d="M351.6,103.1c-0.4-0.3-0.7-0.6-1.3-1.1s-1.8-1.4-3.5-2.6c-1.8-1.2-3.7-2.4-5.6-3.2s-4.3-1.8-7.1-2.5
			c-2.9-0.7-5.7-1.1-8.3-1.1c-9.3,0-16.7,3.2-22.5,9.9s-8.8,14.6-8.8,23.8c0,9.4,3,17.4,8.9,24.4c6,6.9,13.5,10.2,22.6,10.2
			c4.7,0,9.5-1,14-3.2c4.6-2.1,8-4.2,10.2-6.2l3.3-3.2l6.7,12.2c-0.4,0.4-0.8,0.9-1.5,1.6c-0.6,0.6-2.1,1.8-4.4,3.4
			c-2.2,1.7-4.6,3.2-7.1,4.4c-2.4,1.2-5.8,2.4-9.6,3.3c-3.9,1-7.9,1.5-11.9,1.5c-13.3,0-24.3-4.6-32.9-14s-13.1-20.8-13.1-34.2
			c0-13.2,4.5-24.4,13.2-33.6c8.8-9.2,19.7-13.8,32.7-13.8c3.8,0,7.4,0.4,11.1,1.1s6.7,1.8,9.1,2.9s4.6,2.2,6.5,3.4
			c1.9,1.2,3.2,2.1,4.2,2.9l1.2,1.3L351.6,103.1z"/>
		<path class="st0" d="M367.6,75.1h13v78.4c0,5,1.8,8,5.2,8.9c1.7,0.5,4.1,0.3,7.2-0.7l4.6,10.1c-4.3,1.9-8.5,2.8-12.5,2.8
			c-5.5,0-9.7-1.9-12.9-5.6c-3.2-3.7-4.6-8.8-4.6-15.3L367.6,75.1L367.6,75.1z"/>
		<path class="st0" d="M431.2,105.4c9.6,0,17.7,3.4,24.5,10.2c6.7,6.7,10.2,14.8,10.2,24.4c0,9.7-3.2,18-9.6,24.8
			c-6.5,6.7-14.8,10.1-25,10c-10.2-0.2-18.6-3.5-24.9-10.2s-9.6-14.8-9.6-24.5c0-9.6,3.3-17.6,10-24.4
			C413.5,108.8,421.7,105.3,431.2,105.4L431.2,105.4z M431.1,118c-5.8,0-10.8,2.1-14.8,6.5c-4.2,4.4-6.2,9.6-6.2,15.5
			c0,6,1.9,11.3,5.8,15.6c3.9,4.4,9,6.6,15.2,6.7c6.2,0.1,11.4-2,15.3-6.4s6-9.6,6-15.9c0-6-2-11.1-6.2-15.5
			C442.2,120.1,437.2,118,431.1,118L431.1,118z"/>
		<path class="st0" d="M474,106.7h13.3v37.4c0,12.3,4.9,18.4,14.6,18.4c6,0,10.9-2.1,14.5-6.3s5.4-9.7,5.4-16.7v-32.8H535v66.8
			h-12.3l-0.6-9.3c-6,7-13.8,10.5-23,10.5c-7.7,0-13.8-2.4-18.2-7s-6.9-11.7-6.9-21V106.7z"/>
		<path class="st0" d="M597.5,75.3h13.2v98.1h-12.1l-0.6-9.1c-5,7-12.2,10.4-21.4,10.4s-17.1-3.2-23.3-9.6c-6.2-6.5-9.4-14.8-9.4-25
			c0-10,3.2-18.3,9.3-25s14-10,23.4-10c9,0,16,3.2,21.1,9.9L597.5,75.3z M577.4,118.5c-5.7,0-10.3,1.9-14.1,6
			c-3.8,4-5.8,9.3-5.8,15.9c0,6,1.9,11.2,5.5,15.3s8.4,6.2,14.3,6.2c5.4,0,10.1-2,14.1-6.1c3.9-4.1,6-9.3,6-15.4
			c0-6-1.9-11.3-5.8-15.6S583.1,118.4,577.4,118.5L577.4,118.5z"/>
		<path class="st0" d="M644.6,80.4h7.6v93h-7.6V80.4z"/>
		<path class="st0" d="M721.3,112.1c4.5,4.5,6.7,11.3,6.7,20.2v41h-6.6V136c0-8.8-1.7-15.1-4.8-18.7c-3.2-3.6-8.3-5.4-15.5-5.4
			c-7.9,0-14.2,3.1-18.9,9.1s-7.1,13.7-7.1,22.8v29.4h-6.7v-66.8h5.8l0.9,16.2c1.9-3.7,4.1-6.8,6.7-9.3s5.3-4.3,8.2-5.3
			s5.3-1.8,7.4-2.1c2.1-0.4,4.2-0.6,6.2-0.6C710.8,105.3,716.9,107.6,721.3,112.1z"/>
		<path class="st0" d="M767.4,173.4H760l-28.3-66.8h7.9l23.9,58.9l24.2-58.9h7.4L767.4,173.4z"/>
		<path class="st0" d="M826.2,105.5c10.1,0,17.9,3.2,23.3,9.4c5.5,6.2,8.2,14.2,8.2,23.8c0,1.8-0.1,3.2-0.2,3.9l-56.7,0.4
			c0.3,7.2,3,13.1,8.2,17.6c5.2,4.6,11.4,7.1,18.7,7.4c7.7,0.4,14.8-1.4,21.5-5l2.5,6c-5.8,4-13.9,5.9-24.4,5.6
			c-9.4-0.4-17.3-3.7-23.9-10c-6.6-6.4-9.8-14.6-9.8-24.7s3.2-18.4,9.3-24.9C809,108.7,816.8,105.4,826.2,105.5L826.2,105.5z
			 M850.9,136.3c-0.4-7.4-2.6-13.5-7.1-17.9c-4.5-4.5-10.2-6.7-17.3-6.7c-6.7,0-12.3,1.9-17,6c-4.6,4-7.6,10.2-8.8,18.5L850.9,136.3
			L850.9,136.3z"/>
		<path class="st0" d="M909,156c0,6-2.5,10.8-7.4,13.9c-4.9,3.2-10.7,4.8-17.3,4.8c-9,0-17-2.7-23.9-8.3l2.5-7.6
			c7,5.8,14.1,8.7,21.4,8.8c5.2,0,9.3-1.1,12.4-3.2c3.2-2.1,4.7-4.6,4.7-7.4c0-3.2-1.3-5.8-3.9-7.8s-7.1-4.1-13.3-6.1
			c-3.2-1-5.9-2-8.2-3.1c-2.3-1-4.6-2.3-7.1-3.9c-2.5-1.7-4.5-3.5-5.8-5.8c-1.4-2.2-2-4.7-2-7.5c0-4.8,2.1-8.9,6.5-12.3
			s9.6-5,15.9-5c7.6,0,14.6,1.9,20.9,5.8L902,118c-6-3.7-12.2-5.5-18.6-5.5c-3.9,0-7.4,0.9-10.2,2.6c-2.9,1.8-4.3,4.2-4.3,7.3
			s1.2,5.5,3.7,7.2c2.4,1.8,6.7,3.7,13,5.8c7.9,2.7,13.8,5.5,17.6,8.3c3.9,2.8,5.8,6.8,5.8,12.1V156z"/>
		<path class="st0" d="M927.7,154.3c0,4.6,0.6,7.9,1.9,9.9c1.2,2,3.2,3.4,6,4.1c2.5,0.6,5.2,0.4,8-0.7l1.8,6c-3,0.8-5.8,1.2-8.5,1.2
			c-5,0-8.9-1.8-11.8-5.2c-2.9-3.4-4.3-8.3-4.3-14.3v-42.2h-10v-6.5h10V80.4h6.9v26.2h18.7v6.5h-18.7L927.7,154.3z"/>
	</g>
	<path class="st1" d="M217,63.1h-37.2v37.1h24.9V125h-24.9v-24.8h-37.2v-37h37.2v-18c-13.6-19.6-36.3-32.5-61.9-32.5
		c-41.3,0-74.8,33.2-75.2,74.4C20.6,91.4,4,110.8,4,134.1c0,25,19.3,45.6,43.8,47.7v0.2h4.1h115.5v-0.6c3,0.4,6,0.6,9.1,0.6
		c36.6,0,66.3-29.7,66.3-66.4C242.7,94.1,232.6,75.2,217,63.1z"/>
	<g>
		<rect x="217" y="25.9" class="st1" width="37.2" height="37.2"/>
		<rect x="192.1" y="1" class="st1" width="24.9" height="24.9"/>
	</g>
</g>
</svg>
